<svg width="160" height="35" viewBox="0 0 160 35" fill="none" xmlns="http://www.w3.org/2000/svg">
<path d="M0.486796 14.8249C-0.0770887 14.3366 -0.164194 13.4686 0.294249 12.8947L2.29306 10.3927C2.7515 9.8189 3.65005 9.68118 4.28958 10.0839L15.3587 17.0598C15.9982 17.4625 16.1197 18.243 15.6292 18.7939L11.9204 22.9443C11.4298 23.4952 10.5657 23.5453 10.0018 23.057L0.486796 14.8249ZM5.34858 31.4394C4.88097 30.8718 5.00704 30.058 5.62594 29.6302L16.6538 22.0137C17.275 21.5859 18.1185 21.7257 18.5311 22.3267L21.6119 26.8131C22.0244 27.4141 21.8044 28.1862 21.1236 28.5305L9.51583 34.3712C8.83504 34.7134 7.89524 34.5298 7.42762 33.9643L5.34858 31.4394ZM13.1467 13.262C12.4224 13.0011 12.1129 12.2687 12.459 11.6343L18.2996 0.912796C18.6457 0.278434 19.5351 -0.0637861 20.2778 0.151146L23.6519 1.13607C24.3923 1.35309 24.8049 2.08136 24.5642 2.75537L20.397 14.4806C20.1563 15.1546 19.3678 15.4948 18.6434 15.2339L13.1467 13.262ZM22.4944 22.3434C22.233 21.6756 22.6365 20.9849 23.3906 20.8075L29.1211 19.4679C29.8753 19.2926 30.6157 19.7162 30.767 20.4111L33.3113 32.1635C33.4626 32.8583 32.9789 33.6054 32.2363 33.8224L28.8644 34.8073C28.124 35.0243 27.3034 34.655 27.0421 33.9872L22.4944 22.3434ZM23.9109 11.0542C23.943 10.3468 24.6009 9.82725 25.3757 9.90445L38.5926 11.194C39.3673 11.2692 40 11.9119 40 12.6193V15.7744C40 16.4839 39.3628 17.0828 38.5857 17.1078L25.041 17.5397C24.2639 17.5648 23.6519 17.0055 23.6817 16.2961L23.9109 11.0542Z" fill="black"/>
<path d="M60.2145 25.5654L56.4705 12.7254H58.9425L61.7505 23.3334L64.7745 12.7254H66.8145L69.8385 23.3334L72.5265 12.7254H74.9985L71.3025 25.5654H68.6385L65.7585 16.0374L62.8305 25.5654H60.2145ZM81.6737 25.7094C80.3137 25.7094 79.2257 25.5094 78.4097 25.1094C77.6097 24.7094 77.0337 24.0374 76.6817 23.0934C76.3457 22.1334 76.1777 20.8134 76.1777 19.1334C76.1777 17.4214 76.3457 16.0934 76.6817 15.1494C77.0337 14.1894 77.6097 13.5174 78.4097 13.1334C79.2097 12.7494 80.2897 12.5574 81.6497 12.5574C82.8177 12.5574 83.7697 12.6854 84.5057 12.9414C85.2417 13.1974 85.7777 13.6374 86.1137 14.2614C86.4657 14.8854 86.6417 15.7494 86.6417 16.8534C86.6417 18.0534 86.2977 18.8934 85.6097 19.3734C84.9217 19.8374 83.9937 20.0694 82.8257 20.0694H78.5777C78.5937 20.9974 78.6977 21.7414 78.8897 22.3014C79.0977 22.8454 79.4577 23.2454 79.9697 23.5014C80.4977 23.7414 81.2657 23.8614 82.2737 23.8614H86.2817V25.3014C85.5937 25.3974 84.8897 25.4854 84.1697 25.5654C83.4657 25.6614 82.6337 25.7094 81.6737 25.7094ZM78.5537 18.5574H82.6097C83.2497 18.5574 83.7217 18.4374 84.0257 18.1974C84.3297 17.9414 84.4817 17.5014 84.4817 16.8774C84.4817 15.9014 84.2657 15.2374 83.8337 14.8854C83.4017 14.5174 82.6737 14.3334 81.6497 14.3334C80.8497 14.3334 80.2257 14.4534 79.7777 14.6934C79.3297 14.9334 79.0097 15.3654 78.8177 15.9894C78.6417 16.5974 78.5537 17.4534 78.5537 18.5574ZM92.1386 25.7094C91.1946 25.7094 90.4106 25.4294 89.7866 24.8694C89.1786 24.2934 88.8746 23.5014 88.8746 22.4934V21.4854C88.8746 20.4934 89.2106 19.6854 89.8826 19.0614C90.5706 18.4214 91.6026 18.1014 92.9786 18.1014H96.9866V16.7574C96.9866 16.2614 96.8986 15.8454 96.7226 15.5094C96.5626 15.1574 96.2506 14.8934 95.7866 14.7174C95.3386 14.5414 94.6826 14.4534 93.8186 14.4534H89.8826V13.0374C90.4586 12.9094 91.1306 12.7974 91.8986 12.7014C92.6826 12.6054 93.5946 12.5494 94.6346 12.5334C96.2186 12.5334 97.4106 12.8454 98.2106 13.4694C99.0106 14.0774 99.4106 15.1174 99.4106 16.5894V25.5654H97.5146L97.1066 24.1254C97.0266 24.2054 96.8266 24.3334 96.5066 24.5094C96.2026 24.6694 95.8106 24.8454 95.3306 25.0374C94.8666 25.2134 94.3546 25.3734 93.7946 25.5174C93.2506 25.6454 92.6986 25.7094 92.1386 25.7094ZM93.2426 23.9574C93.5626 23.9734 93.9226 23.9334 94.3226 23.8374C94.7386 23.7414 95.1466 23.6374 95.5466 23.5254C95.9466 23.3974 96.2826 23.2854 96.5546 23.1894C96.8266 23.0774 96.9706 23.0134 96.9866 22.9974V19.3014L93.6266 19.4454C92.7946 19.4934 92.1946 19.7094 91.8266 20.0934C91.4746 20.4614 91.2986 20.9334 91.2986 21.5094V22.0854C91.2986 22.7894 91.4986 23.2774 91.8986 23.5494C92.3146 23.8214 92.7626 23.9574 93.2426 23.9574ZM106.248 25.5894C105.064 25.5894 104.168 25.2774 103.56 24.6534C102.968 24.0294 102.672 22.9574 102.672 21.4374V7.25343H105.072V21.1254C105.072 22.1334 105.216 22.8054 105.504 23.1414C105.792 23.4614 106.2 23.6534 106.728 23.7174L107.928 23.8614V25.5894H106.248ZM114.308 25.5654C112.996 25.5654 112.028 25.2454 111.404 24.6054C110.796 23.9654 110.508 22.8614 110.54 21.2934L110.636 14.6934H108.596V13.1334L110.684 12.7254L111.044 9.12543H112.94V12.7254H116.42V14.6934H112.94V21.2694C112.94 21.9254 113.028 22.4214 113.204 22.7574C113.38 23.0774 113.604 23.3014 113.876 23.4294C114.148 23.5414 114.412 23.6134 114.668 23.6454L116.252 23.7894V25.5654H114.308ZM118.844 25.5654V7.25343H121.244V14.1174C121.788 13.7014 122.46 13.3334 123.26 13.0134C124.076 12.6774 124.908 12.5094 125.756 12.5094C126.684 12.5094 127.436 12.7094 128.012 13.1094C128.604 13.4934 129.036 14.0134 129.308 14.6694C129.58 15.3254 129.716 16.0694 129.716 16.9014V25.5654H127.316V17.1894C127.316 16.4374 127.092 15.8374 126.644 15.3894C126.212 14.9254 125.628 14.6934 124.892 14.6934C124.172 14.6934 123.532 14.7974 122.972 15.0054C122.412 15.2134 121.836 15.4934 121.244 15.8454V25.5654H118.844ZM140.584 25.5414V21.2934H132.424L131.92 20.0454L138.304 7.87743H140.776L134.752 19.2294H140.584V14.8854L141.088 13.1334H143.008V19.2294H145.24V20.8854L143.008 21.2934V25.5414H140.584ZM147.006 25.5654V23.6214L153.342 17.4534C154.254 16.6054 154.902 15.8294 155.286 15.1254C155.67 14.4054 155.862 13.5974 155.862 12.7014C155.862 12.1734 155.758 11.7094 155.55 11.3094C155.358 10.8934 155.014 10.5734 154.518 10.3494C154.022 10.1254 153.318 10.0134 152.406 10.0134H147.558V8.14143C148.294 8.04543 149.11 7.95743 150.006 7.87743C150.918 7.78143 151.886 7.73343 152.91 7.73343C154.27 7.73343 155.334 7.92543 156.102 8.30943C156.886 8.69343 157.438 9.23743 157.758 9.94143C158.094 10.6294 158.262 11.4374 158.262 12.3654C158.262 13.5974 158.014 14.6854 157.518 15.6294C157.038 16.5574 156.27 17.5334 155.214 18.5574L150.246 23.3574H158.886V25.5654H147.006Z" fill="black"/>
</svg>
